# xmcd CD database file
#
# Track frame offsets:
#	150
#	13912
#	28675
#	43365
#	59080
#	73305
#	89267
#	104492
#	118175
#	130960
#	144707
#
# Disc length: 2113 seconds
#
# Revision: 3
# Processed by: cddbd v1.5.2PL0 Copyright (c) Steve Scherf et al.
# Submitted via: CDex 1.79
#
DISCID=b2083f0b
DTITLE=Aaron Tippin - Tool Box
DYEAR=1995
DGENRE=Country
TTITLE0=Ten Pound Hammer
TTITLE1=That's As Close As I'll Get To loving You
TTITLE2=A Real Nice Problem To Have
TTITLE3=Without Your Love
TTITLE4=How's The Radio Know
TTITLE5=Everything I Own
TTITLE6=I Can Help
TTITLE7=You Gotta Start Somewhere
TTITLE8=She Made A Man Out Of A Mountain Of Stone
TTITLE9=You've Always Got Me
TTITLE10=Country Boy's Tool Box
EXTD=YEAR: 1995
EXTT0=
EXTT1=
EXTT2=
EXTT3=
EXTT4=
EXTT5=
EXTT6=
EXTT7=
EXTT8=
EXTT9=
EXTT10=
PLAYORDER=
